<svg width="520" height="220" viewBox="0 0 520 220" fill="none" xmlns="http://www.w3.org/2000/svg" role="img" aria-labelledby="logoTitle logoDesc">
  <title id="logoTitle">SpeakNSolve logo</title>
  <desc id="logoDesc">Blue and green chat bubble style monogram above the SpeakNSolve wordmark and the tagline Speak. Think. Solve. Succeed.</desc>
  <rect width="520" height="220" fill="white"/>
  <g transform="translate(160 18)">
    <path d="M60 12C32.4 12 10 34.4 10 62C10 89.6 32.4 112 60 112C78.4 112 94.4 102 103 87" stroke="#1F75D8" stroke-width="12" stroke-linecap="round"/>
    <path d="M95 17C87.1 13.8 78.7 12 70 12" stroke="#1F75D8" stroke-width="12" stroke-linecap="round"/>
    <circle cx="38" cy="57" r="5.5" fill="#1F75D8"/>
    <circle cx="56" cy="57" r="5.5" fill="#1F75D8"/>
    <circle cx="74" cy="57" r="5.5" fill="#1F75D8"/>
    <path d="M42 82C49.6 87.8 60.4 88.1 68.4 82.6L78 76" stroke="#1F75D8" stroke-width="8" stroke-linecap="round" stroke-linejoin="round"/>
    <path d="M88 97C115.6 97 138 119.4 138 147C138 174.6 115.6 197 88 197C69.6 197 53.6 187 45 172" stroke="#58C638" stroke-width="12" stroke-linecap="round"/>
    <path d="M53 102C60.9 98.8 69.3 97 78 97" stroke="#58C638" stroke-width="12" stroke-linecap="round"/>
    <path d="M67 149L84 166L113 133" stroke="#58C638" stroke-width="10" stroke-linecap="round" stroke-linejoin="round"/>
    <path d="M36 185L14 193L24 171" fill="#58C638"/>
  </g>
  <g transform="translate(85 154)">
    <text x="0" y="0" font-family="Avenir Next, Avenir, Segoe UI, sans-serif" font-size="42" font-weight="600" fill="#1B2232">Speak</text>
    <text x="138" y="0" font-family="Avenir Next, Avenir, Segoe UI, sans-serif" font-size="42" font-weight="700" fill="#F29D1F">N</text>
    <text x="172" y="0" font-family="Avenir Next, Avenir, Segoe UI, sans-serif" font-size="42" font-weight="600" fill="#1B2232">solve</text>
  </g>
  <g transform="translate(85 188)">
    <text x="0" y="0" font-family="Avenir Next, Avenir, Segoe UI, sans-serif" font-size="20" font-weight="600" fill="#1F75D8">Speak.</text>
    <text x="98" y="0" font-family="Avenir Next, Avenir, Segoe UI, sans-serif" font-size="20" font-weight="600" fill="#1B2232">Think.</text>
    <text x="188" y="0" font-family="Avenir Next, Avenir, Segoe UI, sans-serif" font-size="20" font-weight="600" fill="#58C638">Solve.</text>
    <text x="274" y="0" font-family="Avenir Next, Avenir, Segoe UI, sans-serif" font-size="20" font-weight="600" fill="#1B2232">Succeed.</text>
  </g>
</svg>
